<?xml version="1.0" encoding="UTF-8"?><!DOCTYPE svg PUBLIC "-//W3C//DTD SVG 1.1//EN" "http://www.w3.org/Graphics/SVG/1.1/DTD/svg11.dtd"><svg xmlns="http://www.w3.org/2000/svg" xmlns:xlink="http://www.w3.org/1999/xlink"><defs/><symbol id="icon-d-ic-apply" viewBox="0 0 24 24">
    <g fill="none" fill-rule="evenodd">
        <path d="M0 0h24v24H0z"/>
        <path stroke="#8a8a8a" d="M4 12.011l5 5L20.011 6"/>
    </g>
</symbol><symbol id="icon-d-ic-cancel" viewBox="0 0 24 24">
    <g fill="none" fill-rule="evenodd">
        <path d="M0 0h24v24H0z"/>
        <path stroke="#8a8a8a" d="M6 6l12 12M18 6L6 18"/>
    </g>
</symbol><symbol id="icon-d-ic-crop" viewBox="0 0 24 24">
    <g fill="none" fill-rule="evenodd">
        <path d="M0 0h24v24H0z"/>
        <path fill="#8a8a8a" d="M4 0h1v20a1 1 0 0 1-1-1V0zM20 17h-1V5h1v12zm0 2v5h-1v-5h1z"/>
        <path fill="#8a8a8a" d="M5 19h19v1H5zM4.762 4v1H0V4h4.762zM7 4h12a1 1 0 0 1 1 1H7V4z"/>
    </g>
</symbol><symbol id="icon-d-ic-delete-all" viewBox="0 0 456 458">
    <path style="fill:#009acf" class="st0" d="M397.1,46H272.5V29.4c0-7.4-6-13.4-13.4-13.4h-62.3c-7.4,0-13.4,6-13.4,13.4V46H58.9c-9.6,0-17.4,7.8-17.4,17.4
        v22.3c0,9.6,7.8,17.4,17.4,17.4h338.3c9.6,0,17.4-7.8,17.4-17.4V63.4C414.5,53.8,406.7,46,397.1,46z"/>
    <path style="fill:transparent" class="st1" d="M143,182.5c-8,0-14.5,6.5-14.5,14.5v173c0,8,6.5,14.5,14.5,14.5s14.5-6.5,14.5-14.5V197
        C157.5,189,151,182.5,143,182.5z"/>
    <path style="fill:#009acf" class="st0" d="M294,426c-59.6,0-108-48.6-108-108.5c0-28.3,10.8-54.1,28.5-73.4V197c0-8,6.5-14.5,14.5-14.5
        s14.5,6.5,14.5,14.5v24.6c15.1-8,32.3-12.6,50.5-12.6c2.2,0,4.3,0.1,6.5,0.2V197c0-8,6.5-14.5,14.5-14.5s14.5,6.5,14.5,14.5v18
        c23,8.1,42.6,23.7,55.5,44V128H71v246.4c0,37.3,30.3,67.6,67.6,67.6h178.8c36.8,0,66.7-29.4,67.6-65.9
        C365.9,406.8,332.7,426,294,426z M157.5,370c0,8-6.5,14.5-14.5,14.5s-14.5-6.5-14.5-14.5V197c0-8,6.5-14.5,14.5-14.5
        s14.5,6.5,14.5,14.5V370z"/>
    <g>
        <path style="fill:#EA0D25" class="st0" d="M232.1,390.2l50-76.3L236.8,244h34.5l29.3,47l28.7-47h34.2L318,315l50,75.2h-35.6L300,339.6l-32.5,50.5H232.1z
            "/>
    </g>
</symbol><symbol id="icon-d-ic-delete" viewBox="0 0 456 458">
    <path style="fill:#009acf" class="st0" d="M397.1,46H272.5V29.4c0-7.4-6-13.4-13.4-13.4h-62.3c-7.4,0-13.4,6-13.4,13.4V46H58.9c-9.6,0-17.4,7.8-17.4,17.4
    v22.3c0,9.6,7.8,17.4,17.4,17.4h338.3c9.6,0,17.4-7.8,17.4-17.4V63.4C414.5,53.8,406.7,46,397.1,46z"/>
    <g>
        <path style="fill:#009acf" class="st0" d="M71,128v246.4c0,37.3,30.3,67.6,67.6,67.6h178.8c37.3,0,67.6-30.3,67.6-67.6V128H71z M157.5,370
            c0,8-6.5,14.5-14.5,14.5s-14.5-6.5-14.5-14.5V197c0-8,6.5-14.5,14.5-14.5s14.5,6.5,14.5,14.5V370z M243.5,370
            c0,8-6.5,14.5-14.5,14.5s-14.5-6.5-14.5-14.5V197c0-8,6.5-14.5,14.5-14.5s14.5,6.5,14.5,14.5V370z M329.5,370
            c0,8-6.5,14.5-14.5,14.5s-14.5-6.5-14.5-14.5V197c0-8,6.5-14.5,14.5-14.5s14.5,6.5,14.5,14.5V370z"/>
    </g>
</symbol><symbol id="icon-d-ic-draw-free" viewBox="0 0 32 32">
    <g fill="none" fill-rule="evenodd">
        <path stroke="#8a8a8a" d="M2.5 20.929C2.594 10.976 4.323 6 7.686 6c5.872 0 2.524 19 7.697 19s1.89-14.929 6.414-14.929 1.357 10.858 5.13 10.858c1.802 0 2.657-2.262 2.566-6.786"/>
    </g>
</symbol><symbol id="icon-d-ic-draw-line" viewBox="0 0 32 32">
    <g fill="none" fill-rule="evenodd">
        <path stroke="#8a8a8a" d="M2 15.5h28"/>
    </g>
</symbol><symbol id="icon-d-ic-draw" viewBox="0 0 504.1 504.1">
    <g>
        <path style="fill:#C04A3E" class="st0" d="M409.7,324.2c34.2-44.7,65.6-49.8,75.2-43.7l-42.4-26.2c0,0,0,0,0,0c-9.6-6.1-41-1-75.2,43.7
            c-24,31.5-29.3,70.4-9.2,83.5l26.5,16.4l15.9,9.9C380.4,394.6,385.6,355.7,409.7,324.2z"/>
        <path style="fill:#E84C3D" class="st1" d="M484.9,280.5c-9.6-6.1-41-1-75.2,43.7c-24,31.5-29.3,70.4-9.2,83.5c26,17,60.8-4.8,84.4-39.8
            C496.9,350.1,504.7,293.2,484.9,280.5z"/>
        <path style="fill:#FFFFFF" class="st2" d="M384.5,397.9L384.5,397.9l-26.5-16.4c-0.5-0.3-1-0.7-1.5-1.1l-3.7-2.1L384.5,397.9z"/>
        <path style="fill:#FFFFFF" class="st2" d="M436.4,252.4c2.5,0.3,4.6,1,6.1,1.9l-15.9-9.8c-1.4-0.9-3.4-1.6-5.7-1.9l11.6,6.7
            C433.9,250.1,435.2,251.2,436.4,252.4z"/>
        <path style="fill:#FFFFFF" class="st2" d="M367.3,298c28.8-37.7,55.6-47.2,69.1-45.7c-1.1-1.2-2.4-2.2-3.9-3.1l-11.6-6.7c-13.4-1.8-40.4,7.5-69.5,45.6
            c-24,31.5-29.3,70.4-9.2,83.5l10.8,6.7l3.7,2.1C338.3,366.4,343.8,328.7,367.3,298z"/>
        <path style="fill:#FEE7BD" class="st3" d="M147.2,91.9l-88-1.4c-12.2,4.1-10.8,17.2-10.2,19.2l52.7,7.6C101.7,117.3,126.7,95.9,147.2,91.9L147.2,91.9z"
            />
        <path style="fill:#3EAAE5" class="st4" d="M162.8,93.6c-4.4-2.5-9.8-2.8-15.6-1.7c-20.5,4-45.5,25.4-45.5,25.4l267.9,150.2c21.8-21,40.8-26.5,51.3-25
            L162.8,93.6z"/>
        <path style="fill:#2C8DB7" class="st5" d="M101.7,117.3c0,0-1.6,23.1-7,33.8c-5,9.9-16.9,19.5-16.9,19.5l256.7,148.2c3.6-10.3,9.3-20.9,16.9-30.7
            c6.2-8.1,12.3-14.9,18.2-20.6L101.7,117.3z"/>
        <path style="fill:#C2AD78" class="st6" d="M43.4,133.7c0,0-4.7,3.2-11.9,6.6l47.4,75.7c0,0,0,0,0,0c-7.8-16.3-1.1-45.2-1.1-45.2S66.4,162.2,43.4,133.7z"
            />
        <path style="fill:#E8D7AC" class="st7" d="M48.9,109.8c1.7,9.9,1.2,20.1-5.5,23.9c23,28.6,34.4,37,34.4,37s11.9-9.6,16.9-19.5c5.3-10.7,7-33.8,7-33.8
            L48.9,109.8z"/>
        <path style="fill:#1B698C" class="st8" d="M342.1,371.6c-13.8-9-15.7-30.2-7.7-52.7L77.8,170.7c0,0-6.7,28.9,1.1,45.2c1.8,3.8,4.5,7,8.1,8.9l265.9,153.5
            L342.1,371.6z"/>
        <path style="fill:#1E2832" class="st9" d="M48.9,109.8c-0.6-2-2-14.5,9.3-18.9l0,0c0,0-43.2-0.9-46.9,4.3s20.2,45,20.2,45c7.3-3.4,11.9-6.6,11.9-6.6
            C50.1,129.9,50.7,119.7,48.9,109.8z"/>
        <path style="fill:#E84C3D" class="st1" d="M162.8,93.6c-4.4-2.5-9.8-2.8-15.6-1.7c-20.5,4-45.5,25.4-45.5,25.4l267.9,150.2c21.8-21,40.8-26.5,51.3-25
            L162.8,93.6z"/>
        <path style="fill:#C04A3E" class="st0" d="M101.7,117.3c0,0-1.6,23.1-7,33.8c-5,9.9-16.9,19.5-16.9,19.5l256.7,148.2c3.6-10.3,9.3-20.9,16.9-30.7
            c6.2-8.1,12.3-14.9,18.2-20.6L101.7,117.3z"/>
        <path style="fill:#953B3B" class="st10" d="M342.1,371.6c-13.8-9-15.7-30.2-7.7-52.7L77.8,170.7c0,0-6.7,28.9,1.1,45.2c1.8,3.8,4.5,7,8.1,8.9
            l265.9,153.5L342.1,371.6z"/>
    </g>
</symbol><symbol id="icon-d-ic-filter" viewBox="0 0 24 24">
    <g fill="none" fill-rule="evenodd">
        <path d="M0 0h24v24H0z"/>
        <path fill="#8a8a8a" d="M12 7v1H2V7h10zm6 0h4v1h-4V7zM12 16v1h10v-1H12zm-6 0H2v1h4v-1z"/>
        <path fill="#8a8a8a" d="M8.5 20a3.5 3.5 0 1 1 0-7 3.5 3.5 0 0 1 0 7zm0-1a2.5 2.5 0 1 0 0-5 2.5 2.5 0 0 0 0 5zM15.5 11a3.5 3.5 0 1 1 0-7 3.5 3.5 0 0 1 0 7zm0-1a2.5 2.5 0 1 0 0-5 2.5 2.5 0 0 0 0 5z"/>
    </g>
</symbol><symbol id="icon-d-ic-flip-reset" viewBox="0 0 31 32">
    <g fill="none" fill-rule="evenodd">
        <path d="M31 0H0v32h31z"/>
        <path fill="#8a8a8a" d="M28 16a8 8 0 0 1-8 8H3v-1h1v-7H3a8 8 0 0 1 8-8h17v1h-1v7h1zM11 9a7 7 0 0 0-7 7v7h16a7 7 0 0 0 7-7V9H11z"/>
        <path stroke="#8a8a8a" stroke-linecap="square" d="M24 5l3.5 3.5L24 12M7 20l-3.5 3.5L7 27"/>
    </g>
</symbol><symbol id="icon-d-ic-flip-x" viewBox="0 0 32 32">
    <g fill="none" fill-rule="evenodd">
        <path d="M32 32H0V0h32z"/>
        <path fill="#8a8a8a" d="M17 32h-1V0h1zM27.167 11l.5 3h-1.03l-.546-3h1.076zm-.5-3h-1.122L25 5h-5V4h5.153a1 1 0 0 1 .986.836L26.667 8zm1.5 9l.5 3h-.94l-.545-3h.985zm1 6l.639 3.836A1 1 0 0 1 28.819 28H26v-1h3l-.726-4h.894zM23 28h-3v-1h3v1zM13 4v1H7L3 27h10v1H3.18a1 1 0 0 1-.986-1.164l3.666-22A1 1 0 0 1 6.847 4H13z"/>
    </g>
</symbol><symbol id="icon-d-ic-flip-y" viewBox="0 0 32 32">
    <g fill="none" fill-rule="evenodd">
        <path d="M0 0v32h32V0z"/>
        <path fill="#8a8a8a" d="M0 16v1h32v-1zM11 27.167l3 .5v-1.03l-3-.546v1.076zm-3-.5v-1.122L5 25v-5H4v5.153a1 1 0 0 0 .836.986L8 26.667zm9 1.5l3 .5v-.94l-3-.545v.985zm6 1l3.836.639A1 1 0 0 0 28 28.82V26h-1v3l-4-.727v.894zM28 23v-3h-1v3h1zM4 13h1V7l22-4v10h1V3.18a1 1 0 0 0-1.164-.986l-22 3.667A1 1 0 0 0 4 6.847V13z"/>
    </g>
</symbol><symbol id="icon-d-ic-flip" viewBox="0 0 24 24">
    <g fill="none" fill-rule="evenodd">
        <path d="M0 0h24v24H0z"/>
        <path fill="#8a8a8a" d="M11 0h1v24h-1zM19 21v-1h2v-2h1v2a1 1 0 0 1-1 1h-2zm-2 0h-3v-1h3v1zm5-5h-1v-3h1v3zm0-5h-1V8h1v3zm0-5h-1V4h-2V3h2a1 1 0 0 1 1 1v2zm-5-3v1h-3V3h3zM9 3v1H2v16h7v1H2a1 1 0 0 1-1-1V4a1 1 0 0 1 1-1h7z"/>
    </g>
</symbol><symbol id="icon-d-ic-icon-arrow-2" viewBox="0 0 32 32">
    <g fill="none" fill-rule="evenodd">
        <path stroke="#8a8a8a" stroke-linecap="round" stroke-linejoin="round" d="M21.793 18.5H2.5v-5h18.935l-7.6-8h5.872l10.5 10.5-10.5 10.5h-5.914l8-8z"/>
    </g>
</symbol><symbol id="icon-d-ic-icon-arrow-3" viewBox="0 0 32 32">
    <g fill="none" fill-rule="evenodd">
        <path stroke="#8a8a8a" stroke-linecap="round" stroke-linejoin="round" d="M25.288 16.42L14.208 27.5H6.792l11.291-11.291L6.826 4.5h7.381l11.661 11.661-.58.258z"/>
    </g>
</symbol><symbol id="icon-d-ic-icon-arrow" viewBox="0 0 32 32">
    <g fill="none" fill-rule="evenodd">
        <path stroke="#8a8a8a" d="M2.5 11.5v9h18v5.293L30.293 16 20.5 6.207V11.5h-18z"/>
    </g>
</symbol><symbol id="icon-d-ic-icon-bubble" viewBox="0 0 32 32">
    <g fill="none" fill-rule="evenodd">
        <path stroke="#8a8a8a" stroke-linecap="round" stroke-linejoin="round" d="M22.207 24.5L16.5 30.207V24.5H8A6.5 6.5 0 0 1 1.5 18V9A6.5 6.5 0 0 1 8 2.5h16A6.5 6.5 0 0 1 30.5 9v9a6.5 6.5 0 0 1-6.5 6.5h-1.793z"/>
    </g>
</symbol><symbol id="icon-d-ic-icon-heart" viewBox="0 0 32 32">
    <g fill="none" fill-rule="evenodd">
        <path fill-rule="nonzero" stroke="#8a8a8a" d="M15.996 30.675l1.981-1.79c7.898-7.177 10.365-9.718 12.135-13.012.922-1.716 1.377-3.37 1.377-5.076 0-4.65-3.647-8.297-8.297-8.297-2.33 0-4.86 1.527-6.817 3.824l-.38.447-.381-.447C13.658 4.027 11.126 2.5 8.797 2.5 4.147 2.5.5 6.147.5 10.797c0 1.714.46 3.375 1.389 5.098 1.775 3.288 4.26 5.843 12.123 12.974l1.984 1.806z"/>
    </g>
</symbol><symbol id="icon-d-ic-icon-load" viewBox="0 0 276.4 291.7">
    <polygon style="fill:#0D7F9E" class="st0" points="24.8,285.7 3.3,273.3 3.8,99.5 176.2,0 197.8,12.4 25.4,112 "/>
    <path style="fill:#009ACF" class="st1" d="M25.4,112l-0.6,173.8l172.3-99.5l0.6-173.8L25.4,112z M175.6,173.8L46.4,248.4l0.6-124l129.3-74.6L175.6,173.8z
        "/>
    <polygon style="fill:#0D7F9E" class="st0" points="175.9,122.8 154,117.3 154.7,62.2 176.2,49.8 "/>
    <polygon style="fill:#2ED573" class="st2" points="175.6,173.8 175.9,122.8 148.1,115.8 122.4,152.2 80.5,125 46.7,179.3 46.4,248.4 "/>
    <polygon style="fill:#7BED9F" class="st3" points="148.1,115.8 113.6,146.4 122.4,152.2 "/>
    <polygon style="fill:#7BED9F" class="st3" points="80.5,125 46.7,167.1 46.7,179.3 "/>
    <path style="fill:#FFA502" class="st4" d="M102.9,110.4c-0.8-10.7,5.9-20.1,15.5-22c-0.2,0-0.3,0-0.5,0c-10.7,0.8-18.6,10.8-17.6,22.3
        c0.9,11.5,10.3,20.1,20.9,19.3c0.7-0.1,1.5-0.2,2.2-0.3C112.9,130.2,103.8,121.7,102.9,110.4z"/>
    <path style="fill:#ECCC68" class="st5" d="M138.8,107.6c-0.9-11.3-10-19.8-20.4-19.3c-9.5,1.9-16.3,11.3-15.5,22c0.9,11.3,10,19.8,20.4,19.3
        C132.9,127.7,139.6,118.3,138.8,107.6z"/>
    <polygon style="fill:#2F2FA8" class="st6" points="177.3,89 137.7,178.2 165.7,194.3 183.3,184.2 183.3,224 199.2,233.2 199.3,175 202.1,103.2 "/>
    <polygon style="fill:#5352ED" class="st7" points="249.6,204.1 199.2,233.2 199.3,175 165.7,194.3 202.1,103.2 231.3,88.3 274.9,131.4 249.6,145.9 "/>
    <polygon style="fill:#8686F2" class="st8" points="231.3,88.3 206.6,74.1 177.3,89 202.1,103.2 "/>
</symbol><symbol id="icon-d-ic-icon-location" viewBox="0 0 32 32">
    <g fill="none" fill-rule="evenodd">
        <g stroke="#8a8a8a">
            <path d="M16 31.28C23.675 23.302 27.5 17.181 27.5 13c0-6.351-5.149-11.5-11.5-11.5S4.5 6.649 4.5 13c0 4.181 3.825 10.302 11.5 18.28z"/>
            <circle cx="16" cy="13" r="4.5"/>
        </g>
    </g>
</symbol><symbol id="icon-d-ic-icon-polygon" viewBox="0 0 32 32">
    <g fill="none" fill-rule="evenodd">
        <path stroke="#8a8a8a" d="M.576 16L8.29 29.5h15.42L31.424 16 23.71 2.5H8.29L.576 16z"/>
    </g>
</symbol><symbol id="icon-d-ic-icon-star-2" viewBox="0 0 32 32">
    <g fill="none" fill-rule="evenodd">
        <path stroke="#8a8a8a" d="M19.446 31.592l2.265-3.272 3.946.25.636-3.94 3.665-1.505-1.12-3.832 2.655-2.962-2.656-2.962 1.12-3.832-3.664-1.505-.636-3.941-3.946.25-2.265-3.271L16 3.024 12.554 1.07 10.289 4.34l-3.946-.25-.636 3.941-3.665 1.505 1.12 3.832L.508 16.33l2.656 2.962-1.12 3.832 3.664 1.504.636 3.942 3.946-.25 2.265 3.27L16 29.638l3.446 1.955z"/>
    </g>
</symbol><symbol id="icon-d-ic-icon-star" viewBox="0 0 32 32">
    <g fill="none" fill-rule="evenodd">
        <path stroke="#8a8a8a" d="M25.292 29.878l-1.775-10.346 7.517-7.327-10.388-1.51L16 1.282l-4.646 9.413-10.388 1.51 7.517 7.327-1.775 10.346L16 24.993l9.292 4.885z"/>
    </g>
</symbol><symbol id="icon-d-ic-icon" viewBox="0 0 504.1 504.1">
    <path style="fill:#DB5449" class="st0" d="M252.1,248.9l252.1-123.3v84.1l-15.8,7.5l0.1,168.7L252.1,504.1V248.9z"/>
    <path style="fill:#C54B42" class="st1" d="M251.3,346.6l237.1-115.8v-13.5L252.1,333L251.3,346.6z"/>
    <path style="fill:#D05045" class="st2" d="M252.1,504.1V248.9L0,125.6v81.9l15.8,7.5V386L252.1,504.1z"/>
    <path style="fill:#BB483E" class="st3" d="M15.8,215v16.1l235.5,115.4l0.8-0.4v-15.4L15.8,215z"/>
    <path style="fill:#EB6258" class="st4" d="M0,125.6L252.1,0l252.1,125.6L252.1,248.9L0,125.6z"/>
    <path style="fill:#FFDB57" class="st5" d="M344.4,204l-93.1-50.4l-92.2,49.9l-63.1-31l155.3-80.4l156.9,80.4L344.4,204z"/>
    <path style="fill:#F5BA3D" class="st6" d="M344.4,204v83.7l63.8-31.3v-84L344.4,204z"/>
    <path style="fill:#D89E39" class="st7" d="M344.4,287.8V301l59-28.7v-13.4L344.4,287.8z"/>
    <path style="fill:#F5BA3D" class="st6" d="M344.4,301v156.9l58.9-29.4l0.1-156.2L344.4,301z"/>
    <path style="fill:#F5BA3D" class="st6" d="M96,172.5v84l63.8,31.3V204L96,172.5z"/>
    <path style="fill:#D89E39" class="st7" d="M100.8,258.9v13.4l59,28.7v-13.2L100.8,258.9z"/>
    <path style="fill:#F5BA3D" class="st6" d="M100.8,272.3l0.1,156.2l58.9,29.4V301L100.8,272.3z"/>
    <path style="fill:#F5BA3D" class="st6" d="M78.8,51.1c-0.6,2.8-0.9,5.8-0.9,8.8c0,44.9,49.2,74,148.1,74c0.5,0,1,0,1.6,0C215.5,103,146.1,20.6,78.8,51.1z
        "/>
    <path style="fill:#FFDB57" class="st5" d="M129.9,16.1c-26.7,0-46.6,14.3-51.1,34.9c67.3-30.4,136.7,51.9,148.7,82.8V88.6C211,60.3,177.1,16.1,129.9,16.1
        z"/>
    <path style="fill:#F5BA3D" class="st6" d="M410.7,50.4c0.6,2.9,0.9,5.9,0.9,9c0,46-49.8,75.8-149.8,75.8c-0.5,0-1.1,0-1.6,0
        C272.5,103.6,342.6,19.3,410.7,50.4z"/>
    <path style="fill:#FFDB57" class="st5" d="M359.1,14.7c27,0,47.2,14.7,51.6,35.8c-68.1-31.2-138.2,53.2-150.4,84.8V88.9C277,59.8,311.3,14.7,359.1,14.7z"
        />
    <path style="fill:#F5BA3D" class="st6" d="M259,88.3c0,0-8.8-1-18.1-1.1c-7.7-0.1-18.2,1.1-18.2,1.1L197,129.6c27.3,12.6,54.3,15.6,84.7,1.9L259,88.3z"/>
</symbol><symbol id="icon-d-ic-mask-load" viewBox="0 0 32 32">
    <g fill="none" fill-rule="evenodd">
        <path d="M0 0h32v32H0z"/>
        <path fill="#8a8a8a" d="M18.01 4a11.798 11.798 0 0 0 0 1H3v24h24V14.986a8.738 8.738 0 0 0 1 0V29a1 1 0 0 1-1 1H3a1 1 0 0 1-1-1V5a1 1 0 0 1 1-1h15.01zM15 23a6 6 0 1 1 0-12 6 6 0 0 1 0 12zm0-1a5 5 0 1 0 0-10 5 5 0 0 0 0 10z"/>
        <path fill="#8a8a8a" d="M25 3h1v9h-1z"/>
        <path stroke="#8a8a8a" d="M22 6l3.5-3.5L29 6"/>
    </g>
</symbol><symbol id="icon-d-ic-mask" viewBox="0 0 24 24">
    <g fill="none">
        <circle cx="12" cy="12" r="4.5" stroke="#8a8a8a"/>
        <path fill="#8a8a8a" d="M2 1h20a1 1 0 0 1 1 1v20a1 1 0 0 1-1 1H2a1 1 0 0 1-1-1V2a1 1 0 0 1 1-1zm0 1v20h20V2H2z"/>
    </g>
</symbol><symbol id="icon-d-ic-redo" viewBox="0 0 456 458">
    <path style="fill:#009acf" class="st0" d="M233.3,249l45.7-45.7c-59.3-41.8-141.6-33.9-168.8,4C83,245.2,40.9,319.9,90.2,413.1
    c7.9,9.1,16.6,18.1,26.1,26.8c-52.6-98.9-34-182.4-5.2-222.6S210.1,162.6,273,207l-48.4,48.4l216.4-4.1l-2.9-9.5L233.3,249z"/>
    <path style="fill:#009acf" class="st1" d="M92,87.5c-1.1,1-2.3,2-3.4,3c-13.4,12.8-25,27.7-34.6,44.1C64.9,117,77.9,101,92,87.5z"/>
    <path style="fill:#009acf" class="st0" d="M54,134.6C5,213.5-5.2,326.5,90.4,413.4c-0.1-0.1-0.1-0.2-0.2-0.3C11.3,322.3,9.6,211.4,54,134.6z"/>
    <path style="fill:#009acf" class="st1" d="M110.2,207.3c27.2-37.9,109.5-45.8,168.8-4L233.3,249l204.8-7.2L376,40c0,0,0,0-25.8,57.7
        C310.6,52,174.8,13.3,92,87.5c-14.1,13.6-27,29.5-38,47.2C9.6,211.4,11.3,322.3,90.2,413.1C40.9,319.9,83,245.2,110.2,207.3z"/>
</symbol><symbol id="icon-d-ic-reset" viewBox="0 0 24 24">
    <g fill="none" fill-rule="evenodd">
        <path d="M0 0h24v24H0z" opacity=".5"/>
        <path fill="#8a8a8a" d="M2 13v-1a7 7 0 0 1 7-7h13v1h-1v5h1v1a7 7 0 0 1-7 7H2v-1h1v-5H2zm7-7a6 6 0 0 0-6 6v6h12a6 6 0 0 0 6-6V6H9z"/>
        <path stroke="#8a8a8a" stroke-linecap="square" d="M19 3l2.5 2.5L19 8M5 16l-2.5 2.5L5 21"/>
    </g>
</symbol><symbol id="icon-d-ic-rotate-clockwise" viewBox="0 0 32 32">
    <g fill="none" fill-rule="evenodd">
        <path fill="#8a8a8a" d="M29 17h-.924c0 6.627-5.373 12-12 12-6.628 0-12-5.373-12-12C4.076 10.398 9.407 5.041 16 5V4C8.82 4 3 9.82 3 17s5.82 13 13 13 13-5.82 13-13z"/>
        <path stroke="#8a8a8a" stroke-linecap="square" d="M16 1.5l4 3-4 3"/>
        <path fill="#8a8a8a" fill-rule="nonzero" d="M16 4h4v1h-4z"/>
    </g>
</symbol><symbol id="icon-d-ic-rotate-counterclockwise" viewBox="0 0 32 32">
    <g fill="none" fill-rule="evenodd">
        <path fill="#8a8a8a" d="M3 17h.924c0 6.627 5.373 12 12 12 6.628 0 12-5.373 12-12 0-6.602-5.331-11.96-11.924-12V4c7.18 0 13 5.82 13 13s-5.82 13-13 13S3 24.18 3 17z"/>
        <path fill="#8a8a8a" fill-rule="nonzero" d="M12 4h4v1h-4z"/>
        <path stroke="#8a8a8a" stroke-linecap="square" d="M16 1.5l-4 3 4 3"/>
    </g>
</symbol><symbol id="icon-d-ic-rotate" viewBox="0 0 43.3 39">
    <path style="fill:#A5283A;" class="st0" d="M21.6,11.6c-10.2,0-18.9,4.1-21.6,8.9v-7.3c0-0.8,0.3-1.7,0.8-2.3c3.4-4.1,11.4-7,20.8-7c9.4,0,17.4,2.9,20.8,7
    c0.5,0.6,0.8,1.5,0.8,2.3v7.3C40.5,15.8,31.9,11.6,21.6,11.6z"/>
    <polygon style="fill:#2B729E" class="st1" points="35.2,11 35.2,30.4 37.2,29.1 37.2,9.7 "/>
    <polygon style="fill:#45A7FF" class="st2" points="35.2,11 21.7,19.4 21.7,38.8 35.2,30.4 "/>
    <polygon style="fill:#F8FAFB" class="st3" points="6.1,9.7 21.7,19.4 21.7,38.8 6.1,29.1 "/>
    <polygon style="fill:#5BCEAA" class="st4" points="35.2,11 37.2,9.7 21.7,0 19.6,1.3 "/>
    <polygon style="fill:#76FFD9" class="st5" points="35.2,11 19.6,1.3 6.1,9.7 21.7,19.4 "/>
    <path style="fill:#B7BDC7" class="st6" d="M14.9,20.6c0.3-0.8,1.6,0.2,1.6,0.2l5.2,3.2v1.8l-6-3.7C15.6,22.1,14.4,21.6,14.9,20.6z"/>
    <path style="fill:#B7BDC7" class="st6" d="M11.1,28.5c0.3-0.8,1.6,0.2,1.6,0.2l9,5.6v1.8L11.8,30C11.8,30,10.6,29.5,11.1,28.5z"/>
    <path style="fill:#B7BDC7" class="st6" d="M17.1,27.1c0.3-0.8,1.6,0.2,1.6,0.2l2.9,2v1.8l-3.8-2.4C17.9,28.6,16.7,28.1,17.1,27.1z"/>
    <path style="fill:#3488C6" class="st7" d="M34.4,11.5v6.8c0,0-0.1,1.3-0.8,1.3c-0.7,0-1.1-0.7-1.1-1.4s0-5.5,0-5.5L34.4,11.5z"/>
    <path style="fill:#3488C6" class="st7" d="M27,16.1v9.3c0,0-0.1,1.3-0.8,1.3s-1.1-0.7-1.1-1.4s0-8,0-8L27,16.1z"/>
    <path style="fill:#3488C6" class="st7" d="M30.9,13.7v14.7c0,0-0.1,1.3-0.8,1.3s-1.1-0.7-1.1-1.4s0-13.4,0-13.4L30.9,13.7z"/>
    <path style="fill:#FF4757" class="st8" d="M15,26c-5.4-1-9.9-5.1-12.7-7.7v0c-0.5-0.4-0.9-0.9-1.3-1.3c0,0,0,0,0,0c-0.4-0.4-0.7-0.9-0.9-1.3v0V23v0
        c0,0.1,0,0.3,0,0.4c0.1,0.7,0.3,1.4,0.8,1.9c0.2,0.2,0.3,0.4,0.5,0.6c0,0,0.1,0.1,0.1,0.1c0.2,0.2,0.3,0.3,0.5,0.5
        c0.1,0.1,0.1,0.1,0.2,0.1c0.1,0.1,0.3,0.3,0.4,0.4C2.5,27,2.6,27,2.7,27.1c0.1,0.1,0.3,0.2,0.4,0.3c0,0,0,0,0,0
        c2.8,2,6.8,5.6,11.6,6.4c0.6,0.1,1.2-0.4,1.2-1.1v-5.5C15.9,26.6,15.5,26.1,15,26z"/>
    <path style="fill:#FF4757" class="st8" d="M21.3,29.3l5.9-6.4c0.7-0.7,1.8-0.2,1.8,0.8v2.5c6.8-1.4,12.2-7,14.2-10.5V23c0,0.9-0.3,1.7-0.8,2.3
        c-2.4,3-7.3,7.7-13.4,8.7v2.5c0,1-1.2,1.5-1.8,0.8l-5.9-6.4C20.9,30.5,20.9,29.8,21.3,29.3z"/>
</symbol><symbol id="icon-d-ic-shape-circle" viewBox="0 0 32 32">
    <g fill="none" fill-rule="evenodd">
        <circle cx="16" cy="16" r="14.5" stroke="#8a8a8a"/>
    </g>
</symbol><symbol id="icon-d-ic-shape-rectangle" viewBox="0 0 32 32">
    <g fill="none" fill-rule="evenodd">
        <rect width="27" height="27" x="2.5" y="2.5" stroke="#8a8a8a" rx="1"/>
    </g>
</symbol><symbol id="icon-d-ic-shape-triangle" viewBox="0 0 32 32">
    <g fill="none" fill-rule="evenodd">
        <path stroke="#8a8a8a" stroke-linecap="round" stroke-linejoin="round" d="M16 2.5l15.5 27H.5z"/>
    </g>
</symbol><symbol id="icon-d-ic-shape" viewBox="0 0 24 24">
    <g fill="none" fill-rule="evenodd">
        <path fill="#8a8a8a" d="M14.706 8H21a1 1 0 0 1 1 1v12a1 1 0 0 1-1 1H9a1 1 0 0 1-1-1v-4h1v4h12V9h-5.706l-.588-1z"/>
        <path stroke="#8a8a8a" stroke-linecap="round" stroke-linejoin="round" d="M8.5 1.5l7.5 13H1z"/>
    </g>
</symbol><symbol id="icon-d-ic-text-align-center" viewBox="0 0 32 32">
    <g fill="none" fill-rule="evenodd">
        <path d="M0 0h32v32H0z"/>
        <path fill="#8a8a8a" d="M2 5h28v1H2zM8 12h16v1H8zM2 19h28v1H2zM8 26h16v1H8z"/>
    </g>
</symbol><symbol id="icon-d-ic-text-align-left" viewBox="0 0 32 32">
    <g fill="none" fill-rule="evenodd">
        <path d="M0 0h32v32H0z"/>
        <path fill="#8a8a8a" d="M2 5h28v1H2zM2 12h16v1H2zM2 19h28v1H2zM2 26h16v1H2z"/>
    </g>
</symbol><symbol id="icon-d-ic-text-align-right" viewBox="0 0 32 32">
    <g fill="none" fill-rule="evenodd">
        <path d="M0 0h32v32H0z"/>
        <path fill="#8a8a8a" d="M2 5h28v1H2zM14 12h16v1H14zM2 19h28v1H2zM14 26h16v1H14z"/>
    </g>
</symbol><symbol id="icon-d-ic-text-bold" viewBox="0 0 32 32">
    <g fill="none" fill-rule="evenodd">
        <path d="M0 0h32v32H0z"/>
        <path fill="#8a8a8a" d="M7 2h2v2H7zM7 28h2v2H7z"/>
        <path stroke="#8a8a8a" stroke-width="2" d="M9 3v12h9a6 6 0 1 0 0-12H9zM9 15v14h10a7 7 0 0 0 0-14H9z"/>
    </g>
</symbol><symbol id="icon-d-ic-text-italic" viewBox="0 0 32 32">
    <g fill="none" fill-rule="evenodd">
        <path d="M0 0h32v32H0z"/>
        <path fill="#8a8a8a" d="M15 2h5v1h-5zM11 29h5v1h-5zM17 3h1l-4 26h-1z"/>
    </g>
</symbol><symbol id="icon-d-ic-text-underline" viewBox="0 0 32 32">
    <g fill="none" fill-rule="evenodd">
        <path d="M0 0h32v32H0z"/>
        <path fill="#8a8a8a" d="M8 2v14a8 8 0 1 0 16 0V2h1v14a9 9 0 0 1-18 0V2h1zM3 29h26v1H3z"/>
        <path fill="#8a8a8a" d="M5 2h5v1H5zM22 2h5v1h-5z"/>
    </g>
</symbol><symbol id="icon-d-ic-text" viewBox="0 0 43.3 39">
    <polygon style="fill:#3AC7E8" class="st0" points="38,3.7 12.3,18.5 5.9,14.8 31.5,0 "/>
    <polygon style="fill:#00A9E0" class="st1" points="38,3.7 38,11.1 12.3,25.9 12.3,18.5 "/>
    <polygon style="fill:#00809E" class="st2" points="5.9,14.8 5.9,22.2 12.3,25.9 12.3,18.5 "/>
    <polygon style="fill:#00A9E0" class="st1" points="28.3,16.7 28.3,35.2 21.9,38.9 21.9,20.4 "/>
    <polygon style="fill:#00809E" class="st2" points="15.5,35.2 21.9,38.9 21.9,20.4 15.5,24.1 "/>
    <polygon style="fill:#9FACBC" class="st3" points="37.7,25.1 35.9,24.1 34.2,25.1 34.2,22.4 32.4,21.4 29.2,23.2 29.2,28 25.6,30 25.6,34.3 27.4,35.3 
        29.2,34.3 29.2,34.3 29.2,37 31,38 34.2,36.1 34.2,31.4 37.7,29.4 "/>
    <polygon style="fill:#D0D4D6" class="st4" points="37.7,29.4 37.7,25.1 34.2,27.1 34.2,22.4 31,24.3 31,29 27.4,31 27.4,35.3 31,33.3 31,38 34.2,36.1 
        34.2,31.4 "/>
    <g>
        <polygon style="fill:#C8CED6" class="st5" points="34.2,22.4 32.4,21.4 29.2,23.2 31,24.3  "/>
        <polygon style="fill:#C8CED6" class="st5" points="31,29 29.2,28 25.6,30 27.4,31  "/>
    </g>
</symbol><symbol id="icon-d-ic-undo" viewBox="0 0 456 458">
    <path style="fill:#009acf" class="st0" d="M225.2,249l-45.8-45.7c59.4-41.8,141.9-33.9,169.2,4c27.3,37.9,69.4,112.6,20,205.8c-8,9.1-16.6,18.1-26.2,26.8
    c52.7-98.9,34.1-182.4,5.2-222.6c-28.9-40.2-99.2-54.6-162.2-10.3l48.6,48.4L17,251.3l2.9-9.5L225.2,249z"/>
    <path style="fill:#019934" class="st1" d="M366.8,87.5c1.1,1,2.3,2,3.4,3c13.5,12.8,25.1,27.7,34.6,44.1C393.9,117,381,101,366.8,87.5z"/>
    <path style="fill:#009acf" class="st0" d="M404.9,134.6c49.1,78.9,59.4,191.8-36.5,278.8c0.1-0.1,0.1-0.2,0.2-0.3C447.7,322.3,449.4,211.4,404.9,134.6z"
        />
    <path style="fill:#009acf" class="st2" d="M348.6,207.3c-27.3-37.9-109.8-45.8-169.2-4l45.8,45.7l-205.3-7.2L82.1,40c0,0,0,0,25.8,57.7
        C147.6,52,283.8,13.3,366.8,87.5c14.1,13.6,27.1,29.5,38.1,47.2c44.5,76.7,42.8,187.6-36.4,278.4C418,319.9,375.8,245.2,348.6,207.3
        z"/>
</symbol><symbol id="icon-d-img-bi" viewBox="0 0 257 26">
    <g fill="#FDBA3B">
        <path d="M26 5a8.001 8.001 0 0 0 0 16 8.001 8.001 0 0 0 0-16M51.893 19.812L43.676 5.396A.78.78 0 0 0 43 5a.78.78 0 0 0-.677.396l-8.218 14.418a.787.787 0 0 0 0 .792c.14.244.396.394.676.394h16.436c.28 0 .539-.15.678-.396a.796.796 0 0 0-.002-.792M15.767 5.231A.79.79 0 0 0 15.21 5H.791A.791.791 0 0 0 0 5.79v6.42a.793.793 0 0 0 .791.79h3.21v7.21c.001.21.082.408.234.56.147.148.347.23.558.23h6.416a.788.788 0 0 0 .792-.79V13h3.006c.413 0 .611-.082.762-.232.15-.149.23-.35.231-.559V5.791a.787.787 0 0 0-.233-.56M85.767 5.231A.79.79 0 0 0 85.21 5H70.791a.791.791 0 0 0-.791.79v6.42a.793.793 0 0 0 .791.79h3.21v7.21c.001.21.082.408.234.56.147.148.347.23.558.23h6.416a.788.788 0 0 0 .792-.79V13h3.006c.413 0 .611-.082.762-.232.15-.149.23-.35.231-.559V5.791a.787.787 0 0 0-.233-.56M65.942 9.948l2.17-3.76a.78.78 0 0 0 0-.792.791.791 0 0 0-.684-.396h-8.54A5.889 5.889 0 0 0 53 10.86a5.887 5.887 0 0 0 3.07 5.17l-2.184 3.782A.792.792 0 0 0 54.571 21h8.54a5.89 5.89 0 0 0 2.831-11.052M105.7 21h2.3V5h-2.3zM91 5h2.4v10.286c0 1.893 1.612 3.429 3.6 3.429s3.6-1.536 3.6-3.429V5h2.4v10.286c0 3.156-2.686 5.714-6 5.714-3.313 0-6-2.558-6-5.714V5zM252.148 21.128h-2.377V9.659h2.27v1.64c.69-1.299 1.792-1.938 3.304-1.938.497 0 .95.065 1.382.192l-.215 2.277a3.734 3.734 0 0 0-1.275-.213c-1.814 0-3.089 1.234-3.089 3.638v5.873zm-7.095-5.744a3.734 3.734 0 0 0-1.101-2.703c-.714-.766-1.6-1.149-2.658-1.149-1.058 0-1.944.383-2.679 1.149a3.803 3.803 0 0 0-1.08 2.703c0 1.063.368 1.978 1.08 2.722.735.746 1.62 1.128 2.68 1.128 1.058 0 1.943-.382 2.657-1.128.734-.744 1.101-1.659 1.101-2.722zm-9.916 0c0-1.682.583-3.086 1.729-4.256 1.166-1.17 2.635-1.767 4.428-1.767 1.793 0 3.262.597 4.407 1.767 1.167 1.17 1.75 2.574 1.75 4.256 0 1.7-.583 3.127-1.75 4.297-1.145 1.17-2.614 1.745-4.407 1.745-1.793 0-3.262-.575-4.428-1.745-1.146-1.17-1.729-2.596-1.729-4.297zm-1.5 3.233l.821 1.83c-.864.638-1.944.958-3.22.958-2.526 0-3.822-1.554-3.822-4.383V11.66h-2.01v-2h2.031V5.595h2.355v4.063h4.018v2h-4.018v5.405c0 1.469.605 2.191 1.793 2.191.626 0 1.318-.212 2.052-.638zm-12.43 2.51h2.375V9.66h-2.376v11.469zm1.23-12.977c-.929 0-1.642-.682-1.642-1.596 0-.873.713-1.554 1.643-1.554.885 0 1.576.681 1.576 1.554 0 .914-.69 1.596-1.576 1.596zm-6.49 7.234c0-1.086-.346-1.98-1.037-2.724-.692-.745-1.599-1.128-2.7-1.128-1.102 0-2.01.383-2.7 1.128-.692.744-1.037 1.638-1.037 2.724 0 1.084.345 2.02 1.036 2.766.691.744 1.6 1.105 2.7 1.105 1.102 0 2.01-.361 2.7-1.105.692-.746 1.038-1.682 1.038-2.766zm-.173-4.129V5h2.397v16.128h-2.354v-1.596c-1.015 1.255-2.333 1.873-3.91 1.873-1.663 0-3.068-.575-4.169-1.724-1.102-1.17-1.663-2.596-1.663-4.297 0-1.682.561-3.107 1.663-4.256 1.101-1.17 2.485-1.745 4.148-1.745 1.534 0 2.83.617 3.888 1.872zm-11.48 9.873h-10.218V5.405h10.195v2.318h-7.711V12h7.15v2.32h-7.15v4.489h7.733v2.319zm-23.891-9.724c-1.793 0-3.132 1.192-3.478 2.979h6.783c-.194-1.808-1.555-2.979-3.305-2.979zm5.703 3.766c0 .32-.021.703-.086 1.128h-9.095c.346 1.787 1.62 3 3.867 3 1.318 0 2.916-.49 3.953-1.234l.994 1.724c-1.189.872-3.067 1.595-5.033 1.595-4.364 0-6.243-3-6.243-6.021 0-1.724.54-3.15 1.642-4.277 1.101-1.127 2.548-1.702 4.298-1.702 1.664 0 3.046.511 4.105 1.553 1.058 1.043 1.598 2.447 1.598 4.234zm-19.949 3.894c1.08 0 1.966-.362 2.68-1.085.712-.724 1.058-1.617 1.058-2.703 0-1.084-.346-2-1.059-2.701-.713-.702-1.599-1.064-2.679-1.064-1.058 0-1.944.362-2.656 1.085-.714.702-1.059 1.596-1.059 2.68 0 1.086.345 2 1.059 2.724.712.702 1.598 1.064 2.656 1.064zm3.673-7.936V9.66h2.29v10.299c0 1.85-.584 3.32-1.728 4.404-1.146 1.085-2.68 1.638-4.58 1.638-1.945 0-3.672-.553-5.206-1.638l1.037-1.808c1.296.915 2.679 1.36 4.126 1.36 2.484 0 3.996-1.51 3.996-3.637v-.83c-1.015 1.127-2.311 1.702-3.91 1.702-1.684 0-3.089-.554-4.19-1.68-1.102-1.128-1.642-2.532-1.642-4.214 0-1.68.561-3.085 1.706-4.191 1.145-1.128 2.571-1.681 4.234-1.681 1.534 0 2.83.575 3.867 1.745zm-18.07 8.127c1.102 0 1.988-.382 2.7-1.128.714-.744 1.06-1.659 1.06-2.743 0-1.065-.346-1.98-1.06-2.724-.712-.745-1.598-1.128-2.7-1.128-1.101 0-2.008.383-2.7 1.128-.691.744-1.036 1.66-1.036 2.745 0 1.084.345 2 1.037 2.745.691.744 1.598 1.105 2.7 1.105zm3.652-8V9.66h2.29v11.469h-2.29v-1.575c-1.059 1.234-2.399 1.852-3.976 1.852-1.663 0-3.067-.575-4.168-1.745-1.102-1.17-1.642-2.617-1.642-4.34 0-1.724.54-3.128 1.642-4.256 1.1-1.128 2.505-1.681 4.168-1.681 1.577 0 2.917.617 3.976 1.872zM138.79 9.34c1.404 0 2.527.448 3.37 1.34.863.873 1.295 2.086 1.295 3.596v6.852h-2.376V14.66c0-2.021-1.036-3.128-2.657-3.128-1.727 0-2.915 1.255-2.915 3.192v6.404h-2.377v-6.426c0-1.978-1.037-3.17-2.679-3.17-1.728 0-2.937 1.277-2.937 3.234v6.362h-2.377V9.659h2.333v1.66c.692-1.212 1.988-1.979 3.522-1.979 1.533.021 2.958.767 3.586 2.107.798-1.277 2.419-2.107 4.212-2.107zm-19.517 11.788h2.484V5.405h-2.484v15.723z"/>
    </g>
</symbol></svg>